<svg width="48" height="48" viewBox="0 0 48 48" fill="none" xmlns="http://www.w3.org/2000/svg">
<path d="M10.16 0H12.324V2.138H14.304V0H16.468V6.472H14.304V4.306H12.324V6.472H10.162V0H10.16ZM19.312 2.146H17.408V0H23.382V2.146H21.476V6.472H19.312V2.146ZM24.33 0H26.586L27.974 2.274L29.36 0H31.616V6.472H29.462V3.264L27.974 5.566H27.936L26.446 3.266V6.472H24.33V0ZM32.692 0H34.858V4.334H37.898V6.474H32.692V0Z" fill="#111133"/>
<path fill-rule="evenodd" clip-rule="evenodd" d="M10.092 44.1441L6 9.43408H42L37.906 44.1401L23.98 48.0001L10.092 44.1441ZM18.366 25.1441L17.978 20.7841H34.268L34.648 16.5281H13.328L14.476 29.4021H29.23L28.736 34.9221L23.988 36.2061H23.984L19.244 34.9261L18.94 31.5321H14.664L15.26 38.2161L23.98 40.6361L32.714 38.2161L33.778 26.2881L33.882 25.1461H18.366V25.1441Z" fill="#111133"/>
</svg>
