<svg width="48" height="48" viewBox="0 0 48 48" fill="none" xmlns="http://www.w3.org/2000/svg">
<g clip-path="url(#clip0_26_13)">
<path d="M47.094 21.8611L26.136 0.906069C25.849 0.618974 25.5083 0.391229 25.1333 0.235847C24.7583 0.0804641 24.3564 0.000488281 23.9505 0.000488281C23.5446 0.000488281 23.1426 0.0804641 22.7677 0.235847C22.3927 0.391229 22.052 0.618974 21.765 0.906069L17.415 5.25607L22.935 10.7761C23.586 10.5538 24.2864 10.519 24.9562 10.6757C25.6261 10.8324 26.2383 11.1743 26.7232 11.6622C27.2081 12.1502 27.546 12.7647 27.6983 13.4355C27.8507 14.1063 27.8115 14.8065 27.585 15.4561L32.904 20.7781C33.6909 20.501 34.5488 20.5002 35.3362 20.7757C36.1237 21.0512 36.7939 21.5867 37.2364 22.294C37.6789 23.0012 37.8674 23.8381 37.7708 24.6668C37.6742 25.4955 37.2983 26.2665 36.705 26.8531C36.1044 27.4574 35.3125 27.8344 34.4648 27.9198C33.617 28.0052 32.7659 27.7935 32.0568 27.3211C31.3478 26.8486 30.8248 26.1446 30.5771 25.3293C30.3294 24.5141 30.3725 23.6381 30.699 22.8511L25.74 17.8891V30.9481C26.4938 31.3212 27.0969 31.9414 27.4488 32.7053C27.8008 33.4691 27.8803 34.3306 27.6741 35.146C27.4679 35.9614 26.9885 36.6815 26.3158 37.1863C25.643 37.6911 24.8176 37.95 23.9771 37.92C23.1365 37.89 22.3317 37.5728 21.6967 37.0213C21.0617 36.4698 20.6348 35.7173 20.4873 34.8893C20.3398 34.0613 20.4806 33.2077 20.8862 32.4709C21.2917 31.734 21.9375 31.1585 22.716 30.8401V17.6611C22.2669 17.477 21.8586 17.2059 21.5147 16.8634C21.1709 16.5208 20.8982 16.1136 20.7125 15.6651C20.5268 15.2167 20.4316 14.7359 20.4326 14.2505C20.4335 13.7652 20.5305 13.2848 20.718 12.8371L15.279 7.39507L0.908998 21.7651C0.621903 22.052 0.394159 22.3927 0.238776 22.7677C0.0833938 23.1427 0.00341797 23.5447 0.00341797 23.9506C0.00341797 24.3565 0.0833938 24.7584 0.238776 25.1334C0.394159 25.5084 0.621903 25.8491 0.908998 26.1361L21.867 47.0941C22.1539 47.3812 22.4947 47.6089 22.8697 47.7643C23.2446 47.9197 23.6466 47.9996 24.0525 47.9996C24.4584 47.9996 24.8603 47.9197 25.2353 47.7643C25.6103 47.6089 25.951 47.3812 26.238 47.0941L47.097 26.2351C47.6761 25.6551 48.0013 24.8691 48.0013 24.0496C48.0013 23.23 47.6761 22.444 47.097 21.8641" fill="#111133"/>
</g>
<defs>
<clipPath id="clip0_26_13">
<rect width="48" height="48" fill="white"/>
</clipPath>
</defs>
</svg>
