<svg width="48" height="48" viewBox="0 0 48 48" fill="none" xmlns="http://www.w3.org/2000/svg">
<g clip-path="url(#clip0_26_35)">
<path d="M46.3059 5.46328L33.3017 7.83356L35.5614 0L17.5153 3.53606L17.2342 8.28356L1.4236 5.45756C0.334694 5.39419 -0.299806 6.17616 0.149819 7.26188L23.0301 47.3853C23.5225 48.1892 24.6563 48.2206 25.1535 47.3853L47.5889 7.25803C48.0952 6.35091 47.3195 5.28759 46.3059 5.46328ZM24.0872 46.2853L1.67907 6.98962L17.1472 9.75441L16.418 22.0699L22.7585 20.6066L20.9905 29.2639L25.8068 27.8006L23.4167 39.3691C23.2976 40.1256 24.283 40.528 24.7704 39.4452L38.8536 11.3397L31.9034 12.6811L32.849 9.40341L46.0593 6.99553L24.0872 46.2853Z" fill="#111133"/>
</g>
<defs>
<clipPath id="clip0_26_35">
<rect width="47.82" height="48" fill="white"/>
</clipPath>
</defs>
</svg>
