<svg width="48" height="48" viewBox="0 0 48 48" fill="none" xmlns="http://www.w3.org/2000/svg">
<g clip-path="url(#clip0_26_11)">
<path d="M15.004 0H20.16V2.156H17.16V4.312H20.16V6.468H15.004V0ZM21.19 0H26.348V1.876H23.348V2.25H26.348V6.562H21.19V4.594H24.19V4.218H21.19V0ZM27.38 0H32.534V1.876H29.534V2.25H32.534V6.562H27.38V4.594H30.38V4.218H27.38V0Z" fill="#111133"/>
<path fill-rule="evenodd" clip-rule="evenodd" d="M23.982 48.0001L10.094 44.1441L6 9.43408H42L37.908 44.1401L23.982 48.0001ZM14.094 25.1461L14.476 29.4021H29.23L28.736 34.9221L23.988 36.2061H23.984L19.244 34.9261L18.94 31.5321H14.666L15.262 38.2161L23.982 40.6361L32.716 38.2161L33.78 26.2881L33.884 25.1461L34.652 16.5281H13.328L13.716 20.7861H29.988L29.6 25.1461H14.094Z" fill="#111133"/>
</g>
<defs>
<clipPath id="clip0_26_11">
<rect width="48" height="48" fill="white"/>
</clipPath>
</defs>
</svg>
