<svg width="49" height="48" viewBox="0 0 49 48" fill="none" xmlns="http://www.w3.org/2000/svg">
<g clip-path="url(#clip0_26_37)">
<path d="M0.820007 24V48H48.82V0H0.820007V24ZM39.499 22.086C40.6497 22.3569 41.6955 22.9599 42.5065 23.82C42.9445 24.288 43.6 25.1475 43.6555 25.359C43.6705 25.422 41.5855 26.82 40.3195 27.6015C40.273 27.633 40.0855 27.438 39.8815 27.132C39.265 26.2335 38.6155 25.8435 37.624 25.773C36.1705 25.6785 35.233 26.4375 35.2405 27.711C35.2329 28.0226 35.3024 28.3313 35.443 28.6095C35.764 29.274 36.3655 29.6715 38.224 30.477C41.662 31.953 43.1305 32.9295 44.044 34.3125C45.067 35.859 45.2935 38.328 44.6065 40.1715C43.8415 42.1635 41.95 43.5225 39.2935 43.968C38.473 44.1165 36.52 44.0925 35.6365 43.929C33.7075 43.5855 31.879 42.6315 30.754 41.382C30.3085 40.8975 29.449 39.624 29.5045 39.5385C29.5285 39.507 29.7235 39.3825 29.9425 39.2565L31.7245 38.2245L33.1075 37.4205L33.397 37.8495C33.8035 38.466 34.6855 39.3105 35.218 39.591C36.7495 40.404 38.851 40.287 39.8905 39.357C40.312 39.006 40.5475 38.466 40.516 37.92C40.516 37.365 40.4455 37.116 40.156 36.7005C39.781 36.1695 39.0235 35.7165 36.859 34.779C34.3825 33.708 33.3115 33.0525 32.344 31.998C31.7349 31.3039 31.2845 30.4854 31.024 29.5995C30.844 28.92 30.7975 27.216 30.9385 26.5365C31.447 24.138 33.259 22.4745 35.86 21.9825C36.7045 21.819 38.6725 21.8805 39.5005 22.0845L39.499 22.086ZM28.234 24.0945L28.249 26.055H21.9985V43.8135H17.5765V26.055H11.335V24.1335C11.335 23.0625 11.359 22.173 11.389 22.149C11.413 22.1175 15.2095 22.1025 19.819 22.11L28.21 22.134L28.234 24.0945Z" fill="#111133"/>
</g>
<defs>
<clipPath id="clip0_26_37">
<rect width="48" height="48" fill="white" transform="translate(0.820007)"/>
</clipPath>
</defs>
</svg>
